# xmcd CD database file
#
# Track frame offsets:
#	150
#	19126
#	54185
#	92447
#	111064
#	133545
#	176283
#	207246
#	237666
#	272672
#
# Disc length: 4188 seconds
#
# Revision: 1
# Processed by: cddbd v1.5.2PL0 Copyright (c) Steve Scherf et al.
# Submitted via: CDex 1.79
#
DISCID=7d105a0a
DTITLE=Manfred Josel Trio - Ed Thigpen - Brushes To Brushes
DYEAR=1900
DGENRE=Jazz
TTITLE0=Take M.J.'s Train
TTITLE1=Brushes To Brushes
TTITLE2=Bye Bye Blackbird
TTITLE3=Mr. Wonderful 2
TTITLE4=A Warm Breeze
TTITLE5=Barcelona Traffic
TTITLE6=Night Train
TTITLE7=Nigerian Marketplace
TTITLE8=Before You've Come
TTITLE9=The Cute
EXTD=
EXTT0=E. Spanyi
EXTT1=K. Melem
EXTT2=R. Henderson
EXTT3=E. Spanyi
EXTT4=s. Nestico
EXTT5=E. Spanyi
EXTT6=J. Forgest
EXTT7=O. Peterson
EXTT8=E. Spanyi
EXTT9=N. Hefti
PLAYORDER=
